<svg width="52" height="15" viewBox="0 0 52 15" fill="none" xmlns="http://www.w3.org/2000/svg">
<path d="M7.50141 0.880859C9.29652 0.880859 10.6109 1.38389 11.4446 2.38994C12.2766 3.39572 12.537 4.7196 12.24 6.37702L11.7594 9.1714C11.1847 12.3945 8.92657 14.1085 5.24077 14.1085H0.686241C0.0940248 14.1085 -0.090456 13.9027 0.0394907 13.3257L2.07475 1.66456C2.20257 1.08707 2.40921 0.882145 3.00014 0.882145L7.50141 0.880859ZM8.61128 6.15409C8.85158 4.81392 8.25979 4.14254 6.81547 4.14254H5.3166L4.13047 10.8473H5.64893C7.07337 10.8473 7.90659 10.1766 8.14859 8.83529L8.61128 6.15409Z" fill="#1F1E21"/>
<path d="M19.0684 4.14062C19.6057 4.14062 19.7544 4.32626 19.6615 4.84844L19.3829 6.43169C19.2913 6.9723 19.088 7.15837 18.5504 7.15837H17.8478C17.5557 7.15133 17.2636 7.17649 16.9769 7.23339C16.9211 7.23339 16.8841 7.27069 16.8653 7.34572L15.8113 13.3996C15.8099 13.5054 15.7856 13.6096 15.7402 13.7051C15.6947 13.8005 15.6292 13.8848 15.5481 13.9521C15.467 14.0195 15.3723 14.0683 15.2706 14.0951C15.1689 14.1219 15.0626 14.1261 14.9591 14.1075H12.9418C12.4054 14.1075 12.2567 13.9218 12.3496 13.3996L13.6827 5.85421C13.6938 5.58577 13.795 5.32904 13.9698 5.12596C14.1446 4.92288 14.3827 4.78545 14.6451 4.73611C15.891 4.34233 17.1891 4.14153 18.495 4.14062H19.0684Z" fill="#1F1E21"/>
<path d="M23.384 4.4191C23.9204 4.4191 24.0691 4.60474 23.9762 5.12692L22.5319 13.3986C22.5305 13.5044 22.5063 13.6086 22.4608 13.704C22.4154 13.7994 22.3499 13.8837 22.2688 13.9511C22.1877 14.0184 22.093 14.0672 21.9913 14.094C21.8896 14.1209 21.7833 14.1251 21.6798 14.1064H19.6629C19.1256 14.1064 18.9782 13.9208 19.0698 13.3986L20.5141 5.12692C20.5155 5.02113 20.5397 4.91691 20.5852 4.8215C20.6306 4.72609 20.6962 4.64178 20.7773 4.57442C20.8583 4.50707 20.953 4.45828 21.0547 4.43146C21.1564 4.40464 21.2627 4.40043 21.3662 4.4191H23.384ZM23.4944 0.65625C24.5493 0.65625 24.8279 0.991506 24.6238 2.03458L24.5868 2.24036C24.3835 3.28343 24.0329 3.61783 22.9763 3.61783H22.0509C20.9943 3.61783 20.7178 3.28343 20.921 2.24036L20.9397 2.03458C21.143 0.991506 21.532 0.65625 22.5686 0.65625H23.4944Z" fill="#1F1E21"/>
<path d="M29.0837 0.339605C29.6209 0.339605 29.7683 0.507234 29.6759 1.04699L29.122 4.25208C29.5385 4.18605 29.959 4.14852 30.3806 4.13976C33.1393 4.13976 34.2875 5.74145 33.8244 8.36906L33.4724 10.3806C33.0102 13.118 31.306 14.3857 28.2699 14.3857C27.0534 14.439 25.8401 14.2229 24.7157 13.7525C24.1423 13.4545 24.0677 13.3049 24.1968 12.6528L26.2133 1.04528C26.3058 0.50552 26.5278 0.337891 27.0654 0.337891L29.0837 0.339605ZM30.4347 8.0338C30.5276 7.41945 30.2314 7.12063 29.5468 7.12063C29.2211 7.11225 28.8961 7.15566 28.5839 7.24925L27.8992 11.1793C27.8975 11.1967 27.9 11.2142 27.9064 11.2304C27.9129 11.2466 27.9231 11.261 27.9363 11.2723C28.1829 11.3416 28.4384 11.3731 28.6942 11.3658C29.4535 11.3658 29.8983 11.0305 30.0282 10.3412L30.4347 8.0338Z" fill="#1F1E21"/>
<path d="M37.6735 13.3996C37.6721 13.5054 37.6479 13.6096 37.6024 13.705C37.557 13.8004 37.4914 13.8847 37.4104 13.9521C37.3293 14.0194 37.2346 14.0682 37.1329 14.0951C37.0312 14.1219 36.9249 14.1261 36.8214 14.1074H34.8036C34.2672 14.1074 34.1185 13.9218 34.2114 13.3996L36.3766 1.02981C36.378 0.924017 36.4022 0.819796 36.4477 0.724386C36.4931 0.628976 36.5586 0.544666 36.6397 0.477312C36.7208 0.409958 36.8155 0.361178 36.9172 0.334356C37.0189 0.307535 37.1252 0.303316 37.2287 0.321996H39.2448C39.7812 0.321996 39.9295 0.508059 39.8379 1.02981L37.6735 13.3996Z" fill="#1F1E21"/>
<path d="M40.1735 8.07197C40.6171 5.55668 42.5058 4.14062 45.4494 4.14062C48.2082 4.14062 49.7628 5.37062 49.4667 7.58666C49.1889 9.30153 47.7075 10.2876 45.3382 10.2876C44.6902 10.2876 44.0051 10.2503 43.2463 10.1753L43.173 10.5662C43.0426 11.3679 43.3762 11.7589 44.1725 11.7589C44.4727 11.7674 44.7713 11.7121 45.0489 11.5965C45.3264 11.481 45.5765 11.3079 45.783 11.0884C46.1345 10.7159 46.3203 10.6224 46.8571 10.9015L48.0607 11.5159C48.5047 11.7585 48.5601 12.1126 48.2269 12.5967C47.3572 13.7896 45.8574 14.386 43.7277 14.3857C40.5625 14.3857 39.3598 12.6155 39.822 10.0081L40.1735 8.07197ZM45.08 6.59975C44.7427 6.57204 44.4078 6.6769 44.1456 6.89233C43.8835 7.10776 43.7145 7.417 43.674 7.75515L43.6182 7.96007C44.0422 8.01548 44.4689 8.04626 44.8964 8.05225C45.6177 8.05225 46.0246 7.82889 46.0992 7.36416C46.1703 6.86041 45.8384 6.59975 45.08 6.59975V6.59975Z" fill="#1F1E21"/>
<path d="M51.5344 0.62359C51.792 0.878823 51.9534 1.21611 51.9913 1.57784C52.0291 1.93957 51.9409 2.30329 51.7418 2.60687C51.5427 2.91045 51.245 3.13504 50.8996 3.24228C50.5542 3.34953 50.1826 3.33277 49.8481 3.19486C49.5136 3.05696 49.2371 2.80648 49.0658 2.4862C48.8944 2.16592 48.839 1.79572 48.9088 1.43884C48.9786 1.08197 49.1694 0.760561 49.4486 0.52953C49.7278 0.298498 50.078 0.172179 50.4395 0.172149C50.643 0.168233 50.8451 0.206264 51.0334 0.283902C51.2217 0.361539 51.3922 0.477142 51.5344 0.62359V0.62359ZM51.2861 2.61584C51.5104 2.37531 51.6308 2.05511 51.6209 1.72539C51.6264 1.56348 51.5996 1.40211 51.5421 1.2508C51.4845 1.09949 51.3975 0.961295 51.2861 0.844379C51.0594 0.621075 50.7546 0.496444 50.4374 0.497407C50.1202 0.498369 49.8161 0.624849 49.5908 0.849524C49.3733 1.09263 49.253 1.40815 49.253 1.73525C49.253 2.06235 49.3733 2.37787 49.5908 2.62098C49.6999 2.73616 49.8318 2.82701 49.978 2.88764C50.1242 2.94828 50.2814 2.97734 50.4395 2.97296C50.5977 2.97717 50.755 2.94747 50.901 2.88582C51.0469 2.82418 51.1782 2.732 51.2861 2.61541V2.61584ZM49.8174 2.41949V1.09046C49.8154 1.06995 49.8176 1.04922 49.8238 1.02959C49.8301 1.00996 49.8403 0.991852 49.8539 0.976394C49.8675 0.960935 49.8841 0.948464 49.9026 0.939764C49.9212 0.931063 49.9414 0.926323 49.9619 0.925836C50.1011 0.9089 50.2413 0.900736 50.3815 0.901396C50.8414 0.901396 51.0712 1.08589 51.0709 1.45487C51.0831 1.56683 51.0561 1.67956 50.9943 1.77353C50.9326 1.8675 50.8402 1.93677 50.733 1.96933L51.0709 2.44993C51.1257 2.52738 51.1047 2.56611 51.0078 2.56611H50.8724C50.828 2.56786 50.784 2.5577 50.7448 2.53668C50.7057 2.51566 50.6728 2.48454 50.6495 2.4465L50.3671 2.0032C50.3151 1.99966 50.2635 1.99162 50.2128 1.97919V2.42035C50.2157 2.44011 50.2139 2.46027 50.2076 2.47923C50.2014 2.49819 50.1908 2.51543 50.1768 2.52958C50.1628 2.54372 50.1457 2.55439 50.1269 2.56073C50.1081 2.56707 50.088 2.56891 50.0684 2.56611H49.9619C49.9421 2.56896 49.9219 2.56711 49.903 2.5607C49.8841 2.55429 49.8669 2.5435 49.8528 2.5292C49.8388 2.5149 49.8283 2.49749 49.8221 2.47836C49.816 2.45924 49.8144 2.43892 49.8174 2.41906V2.41949ZM50.2128 1.18221V1.73568C50.3189 1.74512 50.3751 1.75026 50.3832 1.75026C50.5923 1.75026 50.6968 1.6548 50.6968 1.46388C50.6968 1.26667 50.5923 1.16792 50.3832 1.16763C50.3261 1.16654 50.269 1.17113 50.2128 1.18135V1.18221Z" fill="#1F1E21"/>
</svg>
